<?xml version="1.0" encoding="UTF-8"?>
<svg xmlns="http://www.w3.org/2000/svg" xmlns:xlink="http://www.w3.org/1999/xlink" width="1024px" height="1024px" viewBox="0 0 1024 1024" version="1.1">
<g id="surface1">
<path style=" stroke:none;fill-rule:evenodd;fill:rgb(54.509807%,38.039216%,94.901961%);fill-opacity:1;" d="M 500.972656 85.359375 C 488.328125 88.671875 482.226562 92.75 465.464844 109.09375 C 458.988281 115.414062 441.515625 132.433594 426.640625 146.921875 C 411.761719 161.410156 385.398438 187.136719 368.050781 204.09375 C 350.703125 221.050781 323.828125 247.261719 308.328125 262.34375 C 292.824219 277.425781 260.265625 309.144531 235.976562 332.832031 C 187.8125 379.800781 151.179688 415.457031 113.003906 452.523438 C 81.078125 483.519531 80.859375 483.785156 77.894531 495.367188 C 72.703125 515.679688 82.808594 534.84375 102.398438 541.820312 C 107.164062 543.515625 107.726562 543.542969 148.035156 543.90625 L 188.847656 544.277344 L 189.21875 676.191406 L 189.589844 808.109375 L 203.285156 790.464844 C 210.820312 780.761719 224.195312 763.472656 233.015625 752.046875 C 241.832031 740.617188 253.714844 725.257812 259.429688 717.914062 C 281.273438 689.8125 301.160156 664.070312 325.34375 632.578125 C 358.265625 589.714844 356.261719 591.625 369.101562 590.859375 L 376.128906 590.441406 L 376.355469 568.101562 C 376.625 541.277344 377.488281 538.714844 386.226562 538.714844 C 395.894531 538.714844 396.984375 541.769531 396.984375 568.886719 L 396.984375 590.433594 L 405.183594 590.867188 C 414.761719 591.371094 418.609375 593.054688 422.046875 598.246094 L 424.070312 601.304688 L 424.273438 654.722656 C 424.5 713.96875 424.589844 712.722656 419.710938 717.453125 C 416.449219 720.613281 411.546875 721.996094 403.585938 721.996094 L 397.070312 721.996094 L 396.839844 743.699219 C 396.570312 769.816406 395.875 771.710938 386.597656 771.710938 C 377.484375 771.710938 376.738281 769.597656 376.648438 743.515625 L 376.578125 722.367188 L 368.046875 721.953125 C 351.214844 721.144531 349.359375 718.300781 348.773438 692.457031 L 348.382812 675.164062 L 319.097656 712.863281 C 284.855469 756.941406 258.925781 790.363281 233.726562 822.910156 C 223.773438 835.765625 211.359375 851.792969 206.136719 858.527344 C 195.394531 872.375 195.785156 871.363281 199.179688 876.671875 C 206.363281 887.898438 219.378906 896.742188 232.039062 899 C 240.71875 900.546875 788.511719 900.539062 797.191406 898.992188 C 814.582031 895.890625 830.363281 881.757812 836.699219 863.609375 L 838.863281 857.414062 L 839.234375 700.847656 L 839.605469 544.277344 L 880.789062 543.90625 C 926.777344 543.492188 925 543.691406 934.574219 537.933594 C 951.40625 527.804688 956.972656 505.40625 947.464844 486.0625 C 945.480469 482.027344 942.6875 478.816406 930.925781 467.074219 C 911.886719 448.054688 831.113281 369.296875 829.957031 368.621094 C 829.050781 368.085938 826.699219 371.089844 804.234375 401.4375 C 799.550781 407.765625 785.203125 427.132812 772.351562 444.476562 C 749.9375 474.726562 736.574219 492.816406 697.980469 545.167969 C 675.8125 575.242188 674.492188 576.347656 659.664062 577.214844 L 651.875 577.667969 L 651.132812 623.277344 L 648.789062 625.621094 C 644.460938 629.945312 636.414062 629.242188 633.144531 624.25 C 631.992188 622.496094 631.792969 619.597656 631.46875 599.964844 L 631.097656 577.667969 L 623.304688 577.25 C 612.546875 576.667969 608.128906 574.261719 604.972656 567.269531 C 603.359375 563.695312 602.515625 501.574219 603.972656 493.6875 C 605.71875 484.25 611.21875 480.359375 623.914062 479.585938 L 631.46875 479.128906 L 631.46875 456.792969 C 631.472656 431.878906 631.609375 431.132812 636.75 428.476562 C 642.515625 425.492188 651.386719 429.625 651.5625 435.375 C 651.597656 436.503906 651.683594 446.777344 651.753906 458.203125 L 651.882812 478.980469 L 659.667969 479.402344 C 672.132812 480.074219 678.214844 484.703125 678.214844 493.515625 C 678.214844 496.914062 678.847656 496.214844 692.355469 477.925781 C 727.355469 430.53125 735.585938 419.410156 778.746094 361.210938 C 788.34375 348.265625 796.195312 337.375 796.195312 337.007812 C 796.195312 336.398438 768.554688 309.242188 678.625 221.496094 C 662.308594 205.578125 627.414062 171.375 601.074219 145.484375 C 574.734375 119.59375 551.207031 96.960938 548.789062 95.179688 C 535.082031 85.089844 516.550781 81.28125 500.972656 85.359375 M 521.972656 386.65625 C 525.863281 390.074219 526.089844 391.855469 526.09375 419.433594 L 526.097656 444.476562 L 532.078125 444.476562 C 543.097656 444.476562 549.078125 447.566406 551.824219 454.6875 C 553.957031 460.214844 553.933594 674.203125 551.800781 678.214844 C 548.023438 685.3125 542.867188 687.863281 532.269531 687.863281 L 526.097656 687.863281 L 526.097656 712.019531 C 526.097656 744.023438 525.121094 747.222656 515.339844 747.222656 C 505.515625 747.222656 504.589844 744.238281 504.582031 712.53125 L 504.578125 687.863281 L 498.679688 687.863281 C 487.382812 687.863281 482.527344 685.765625 479.132812 679.417969 L 477.496094 676.359375 L 477.496094 455.976562 L 479.480469 452.601562 C 482.644531 447.214844 487.386719 445.046875 496.894531 444.625 L 504.492188 444.285156 L 504.722656 417.851562 C 504.9375 393.050781 505.039062 391.289062 506.402344 389.277344 C 510.054688 383.882812 517.40625 382.648438 521.972656 386.65625 "/>
</g>
</svg>
